<svg width="297" height="57" viewBox="0 0 297 57" fill="none" xmlns="http://www.w3.org/2000/svg">
<path d="M82.8136 2.45455H86.6062L90.6119 12.2273H90.7824L94.7881 2.45455H98.5807V17H95.5977V7.53267H95.477L91.7128 16.929H89.6815L85.9173 7.49716H85.7966V17H82.8136V2.45455ZM114.481 9.72727C114.481 11.3134 114.18 12.6629 113.579 13.7756C112.982 14.8883 112.168 15.7382 111.136 16.3253C110.108 16.9077 108.953 17.1989 107.67 17.1989C106.377 17.1989 105.217 16.9053 104.19 16.3182C103.162 15.7311 102.35 14.8812 101.754 13.7685C101.157 12.6558 100.859 11.3087 100.859 9.72727C100.859 8.1411 101.157 6.79167 101.754 5.67898C102.35 4.56629 103.162 3.71875 104.19 3.13636C105.217 2.54924 106.377 2.25568 107.67 2.25568C108.953 2.25568 110.108 2.54924 111.136 3.13636C112.168 3.71875 112.982 4.56629 113.579 5.67898C114.18 6.79167 114.481 8.1411 114.481 9.72727ZM111.363 9.72727C111.363 8.69981 111.209 7.83333 110.901 7.12784C110.598 6.42235 110.17 5.88731 109.616 5.52273C109.062 5.15814 108.413 4.97585 107.67 4.97585C106.926 4.97585 106.278 5.15814 105.724 5.52273C105.17 5.88731 104.739 6.42235 104.431 7.12784C104.128 7.83333 103.977 8.69981 103.977 9.72727C103.977 10.7547 104.128 11.6212 104.431 12.3267C104.739 13.0322 105.17 13.5672 105.724 13.9318C106.278 14.2964 106.926 14.4787 107.67 14.4787C108.413 14.4787 109.062 14.2964 109.616 13.9318C110.17 13.5672 110.598 13.0322 110.901 12.3267C111.209 11.6212 111.363 10.7547 111.363 9.72727ZM118.471 15.3097C118.002 15.3097 117.599 15.1439 117.263 14.8125C116.932 14.4811 116.766 14.0786 116.766 13.6051C116.766 13.1411 116.932 12.7434 117.263 12.4119C117.599 12.0805 118.002 11.9148 118.471 11.9148C118.925 11.9148 119.323 12.0805 119.664 12.4119C120.005 12.7434 120.175 13.1411 120.175 13.6051C120.175 13.9176 120.095 14.2041 119.934 14.4645C119.777 14.7202 119.571 14.9261 119.316 15.0824C119.06 15.2339 118.778 15.3097 118.471 15.3097ZM118.471 8.17188C118.002 8.17188 117.599 8.00616 117.263 7.67472C116.932 7.34328 116.766 6.94081 116.766 6.46733C116.766 6.00331 116.932 5.60795 117.263 5.28125C117.599 4.94981 118.002 4.78409 118.471 4.78409C118.925 4.78409 119.323 4.94981 119.664 5.28125C120.005 5.60795 120.175 6.00331 120.175 6.46733C120.175 6.78456 120.095 7.07339 119.934 7.33381C119.777 7.58949 119.571 7.79309 119.316 7.9446C119.06 8.09612 118.778 8.17188 118.471 8.17188ZM125.791 2.45455V17H122.716V2.45455H125.791ZM140.488 2.45455V17H137.831L131.503 7.84517H131.397V17H128.321V2.45455H131.02L137.299 11.6023H137.427V2.45455H140.488ZM155.548 6.63778C155.491 6.06487 155.247 5.61979 154.816 5.30256C154.386 4.98532 153.801 4.8267 153.062 4.8267C152.56 4.8267 152.137 4.89773 151.791 5.03977C151.445 5.17708 151.18 5.36884 150.995 5.61506C150.816 5.86127 150.726 6.14062 150.726 6.45312C150.716 6.71354 150.771 6.94081 150.889 7.13494C151.012 7.32907 151.18 7.49716 151.393 7.6392C151.606 7.77651 151.852 7.89725 152.132 8.00142C152.411 8.10085 152.709 8.18608 153.027 8.2571L154.334 8.5696C154.968 8.71165 155.55 8.90104 156.081 9.13778C156.611 9.37453 157.07 9.66572 157.459 10.0114C157.847 10.357 158.147 10.7642 158.361 11.233C158.578 11.7017 158.69 12.2391 158.694 12.8452C158.69 13.7353 158.462 14.5071 158.012 15.1605C157.567 15.8092 156.923 16.3134 156.081 16.6733C155.243 17.0284 154.232 17.206 153.048 17.206C151.874 17.206 150.851 17.026 149.98 16.6662C149.113 16.3063 148.436 15.7737 147.949 15.0682C147.466 14.358 147.212 13.4796 147.189 12.4332H150.164C150.198 12.9209 150.337 13.3281 150.584 13.6548C150.834 13.9768 151.168 14.2206 151.585 14.3864C152.006 14.5473 152.482 14.6278 153.012 14.6278C153.533 14.6278 153.986 14.5521 154.369 14.4006C154.757 14.2491 155.058 14.0384 155.271 13.7685C155.484 13.4986 155.591 13.1884 155.591 12.8381C155.591 12.5114 155.494 12.2367 155.299 12.0142C155.11 11.7917 154.831 11.6023 154.461 11.446C154.097 11.2898 153.649 11.1477 153.119 11.0199L151.535 10.6222C150.309 10.3239 149.341 9.85748 148.63 9.22301C147.92 8.58854 147.567 7.7339 147.572 6.65909C147.567 5.77841 147.802 5.009 148.275 4.35085C148.753 3.69271 149.409 3.17898 150.243 2.80966C151.076 2.44034 152.023 2.25568 153.084 2.25568C154.163 2.25568 155.105 2.44034 155.91 2.80966C156.72 3.17898 157.35 3.69271 157.799 4.35085C158.249 5.009 158.481 5.77131 158.495 6.63778H155.548ZM160.209 4.99006V2.45455H172.155V4.99006H167.702V17H164.662V4.99006H160.209ZM186.825 9.72727C186.825 11.3134 186.524 12.6629 185.923 13.7756C185.326 14.8883 184.512 15.7382 183.479 16.3253C182.452 16.9077 181.297 17.1989 180.014 17.1989C178.721 17.1989 177.561 16.9053 176.533 16.3182C175.506 15.7311 174.694 14.8812 174.097 13.7685C173.501 12.6558 173.202 11.3087 173.202 9.72727C173.202 8.1411 173.501 6.79167 174.097 5.67898C174.694 4.56629 175.506 3.71875 176.533 3.13636C177.561 2.54924 178.721 2.25568 180.014 2.25568C181.297 2.25568 182.452 2.54924 183.479 3.13636C184.512 3.71875 185.326 4.56629 185.923 5.67898C186.524 6.79167 186.825 8.1411 186.825 9.72727ZM183.707 9.72727C183.707 8.69981 183.553 7.83333 183.245 7.12784C182.942 6.42235 182.514 5.88731 181.96 5.52273C181.406 5.15814 180.757 4.97585 180.014 4.97585C179.27 4.97585 178.622 5.15814 178.068 5.52273C177.514 5.88731 177.083 6.42235 176.775 7.12784C176.472 7.83333 176.32 8.69981 176.32 9.72727C176.32 10.7547 176.472 11.6212 176.775 12.3267C177.083 13.0322 177.514 13.5672 178.068 13.9318C178.622 14.2964 179.27 14.4787 180.014 14.4787C180.757 14.4787 181.406 14.2964 181.96 13.9318C182.514 13.5672 182.942 13.0322 183.245 12.3267C183.553 11.6212 183.707 10.7547 183.707 9.72727ZM189.103 17V2.45455H194.841C195.94 2.45455 196.877 2.65104 197.654 3.04403C198.435 3.43229 199.029 3.9839 199.436 4.69886C199.848 5.40909 200.054 6.24479 200.054 7.20597C200.054 8.17187 199.846 9.00284 199.429 9.69886C199.013 10.3902 198.409 10.9205 197.618 11.2898C196.832 11.6591 195.881 11.8438 194.763 11.8438H190.921V9.37216H194.266C194.853 9.37216 195.341 9.29167 195.729 9.13068C196.117 8.9697 196.406 8.72822 196.596 8.40625C196.79 8.08428 196.887 7.68419 196.887 7.20597C196.887 6.72301 196.79 6.31581 196.596 5.98438C196.406 5.65294 196.115 5.40199 195.722 5.23153C195.334 5.05634 194.844 4.96875 194.252 4.96875H192.178V17H189.103ZM196.958 10.3807L200.573 17H197.178L193.641 10.3807H196.958ZM200.77 2.45455H204.215L207.531 8.71875H207.673L210.99 2.45455H214.435L209.129 11.858V17H206.075V11.858L200.77 2.45455Z" fill="white"/>
<path d="M137.82 43L147 51.6604L156.18 43L159 45.6792L147 57L135 45.6792L137.82 43Z" fill="white"/>
</svg>
