<svg width="720" height="51" viewBox="0 0 720 51" fill="none" xmlns="http://www.w3.org/2000/svg">
<path d="M263.441 39H256.85L266.893 9.90909H274.819L284.847 39H278.256L270.969 16.5568H270.742L263.441 39ZM263.029 27.5653H278.597V32.3665H263.029V27.5653ZM288.349 39V9.90909H299.996C302.137 9.90909 303.922 10.2263 305.352 10.8608C306.781 11.4953 307.856 12.3759 308.576 13.5028C309.296 14.6203 309.656 15.9081 309.656 17.3665C309.656 18.5028 309.428 19.5019 308.974 20.3636C308.519 21.2159 307.894 21.9167 307.099 22.4659C306.313 23.0057 305.413 23.3892 304.4 23.6165V23.9006C305.508 23.9479 306.545 24.2604 307.511 24.8381C308.486 25.4157 309.277 26.2254 309.883 27.267C310.489 28.2992 310.792 29.5303 310.792 30.9602C310.792 32.5038 310.408 33.8816 309.641 35.0938C308.884 36.2964 307.762 37.2481 306.275 37.9489C304.788 38.6496 302.956 39 300.778 39H288.349ZM294.499 33.9716H299.513C301.228 33.9716 302.478 33.6449 303.263 32.9915C304.049 32.3286 304.442 31.4479 304.442 30.3494C304.442 29.5445 304.248 28.8343 303.86 28.2188C303.472 27.6032 302.918 27.1203 302.198 26.7699C301.488 26.4195 300.64 26.2443 299.656 26.2443H294.499V33.9716ZM294.499 22.0824H299.059C299.902 22.0824 300.65 21.9356 301.303 21.642C301.966 21.339 302.487 20.9129 302.866 20.3636C303.254 19.8144 303.448 19.1562 303.448 18.3892C303.448 17.3381 303.074 16.4905 302.326 15.8466C301.587 15.2027 300.536 14.8807 299.173 14.8807H294.499V22.0824ZM341.527 24.4545C341.527 27.6269 340.926 30.3258 339.723 32.5511C338.53 34.7765 336.901 36.4763 334.837 37.6506C332.782 38.8153 330.471 39.3977 327.905 39.3977C325.32 39.3977 323 38.8106 320.945 37.6364C318.89 36.4621 317.266 34.7623 316.072 32.5369C314.879 30.3116 314.283 27.6174 314.283 24.4545C314.283 21.2822 314.879 18.5833 316.072 16.358C317.266 14.1326 318.89 12.4375 320.945 11.2727C323 10.0985 325.32 9.51136 327.905 9.51136C330.471 9.51136 332.782 10.0985 334.837 11.2727C336.901 12.4375 338.53 14.1326 339.723 16.358C340.926 18.5833 341.527 21.2822 341.527 24.4545ZM335.291 24.4545C335.291 22.3996 334.983 20.6667 334.368 19.2557C333.762 17.8447 332.905 16.7746 331.797 16.0455C330.689 15.3163 329.392 14.9517 327.905 14.9517C326.418 14.9517 325.121 15.3163 324.013 16.0455C322.905 16.7746 322.043 17.8447 321.428 19.2557C320.821 20.6667 320.518 22.3996 320.518 24.4545C320.518 26.5095 320.821 28.2424 321.428 29.6534C322.043 31.0644 322.905 32.1345 324.013 32.8636C325.121 33.5928 326.418 33.9574 327.905 33.9574C329.392 33.9574 330.689 33.5928 331.797 32.8636C332.905 32.1345 333.762 31.0644 334.368 29.6534C334.983 28.2424 335.291 26.5095 335.291 24.4545ZM364.052 9.90909H370.202V28.8011C370.202 30.9223 369.696 32.7784 368.683 34.3693C367.679 35.9602 366.272 37.2008 364.464 38.0909C362.655 38.9716 360.548 39.4119 358.143 39.4119C355.728 39.4119 353.616 38.9716 351.808 38.0909C349.999 37.2008 348.593 35.9602 347.589 34.3693C346.585 32.7784 346.083 30.9223 346.083 28.8011V9.90909H352.234V28.2756C352.234 29.3835 352.475 30.3684 352.958 31.2301C353.451 32.0919 354.142 32.7689 355.032 33.2614C355.922 33.7538 356.959 34 358.143 34C359.336 34 360.373 33.7538 361.254 33.2614C362.144 32.7689 362.83 32.0919 363.313 31.2301C363.806 30.3684 364.052 29.3835 364.052 28.2756V9.90909ZM374.155 14.9801V9.90909H398.047V14.9801H389.141V39H383.061V14.9801H374.155ZM429.208 9.90909H435.359V28.8011C435.359 30.9223 434.852 32.7784 433.839 34.3693C432.835 35.9602 431.429 37.2008 429.62 38.0909C427.811 38.9716 425.704 39.4119 423.299 39.4119C420.884 39.4119 418.772 38.9716 416.964 38.0909C415.155 37.2008 413.749 35.9602 412.745 34.3693C411.741 32.7784 411.239 30.9223 411.239 28.8011V9.90909H417.39V28.2756C417.39 29.3835 417.631 30.3684 418.114 31.2301C418.607 32.0919 419.298 32.7689 420.188 33.2614C421.078 33.7538 422.115 34 423.299 34C424.492 34 425.529 33.7538 426.41 33.2614C427.3 32.7689 427.987 32.0919 428.469 31.2301C428.962 30.3684 429.208 29.3835 429.208 28.2756V9.90909ZM456.2 18.2756C456.087 17.1297 455.599 16.2396 454.737 15.6051C453.875 14.9706 452.706 14.6534 451.229 14.6534C450.225 14.6534 449.377 14.7955 448.686 15.0795C447.995 15.3542 447.464 15.7377 447.095 16.2301C446.735 16.7225 446.555 17.2812 446.555 17.9062C446.536 18.4271 446.645 18.8816 446.882 19.2699C447.128 19.6581 447.464 19.9943 447.891 20.2784C448.317 20.553 448.809 20.7945 449.368 21.0028C449.927 21.2017 450.523 21.3722 451.158 21.5142L453.771 22.1392C455.04 22.4233 456.205 22.8021 457.266 23.2756C458.326 23.7491 459.245 24.3314 460.021 25.0227C460.798 25.714 461.399 26.5284 461.825 27.4659C462.261 28.4034 462.483 29.4782 462.493 30.6903C462.483 32.4706 462.029 34.0142 461.129 35.321C460.239 36.6184 458.951 37.6269 457.266 38.3466C455.589 39.0568 453.568 39.4119 451.2 39.4119C448.852 39.4119 446.806 39.0521 445.064 38.3324C443.331 37.6127 441.977 36.5473 441.001 35.1364C440.036 33.7159 439.529 31.9593 439.482 29.8665H445.433C445.5 30.8419 445.779 31.6562 446.271 32.3097C446.773 32.9536 447.441 33.4413 448.274 33.7727C449.117 34.0947 450.069 34.2557 451.129 34.2557C452.171 34.2557 453.075 34.1042 453.842 33.8011C454.619 33.4981 455.22 33.0767 455.646 32.5369C456.072 31.9972 456.286 31.3769 456.286 30.6761C456.286 30.0227 456.091 29.4735 455.703 29.0284C455.324 28.5833 454.766 28.2045 454.027 27.892C453.298 27.5795 452.403 27.2955 451.342 27.0398L448.175 26.2443C445.722 25.6477 443.786 24.715 442.365 23.446C440.945 22.1771 440.239 20.4678 440.249 18.3182C440.239 16.5568 440.708 15.018 441.655 13.7017C442.611 12.3854 443.923 11.358 445.589 10.6193C447.256 9.88068 449.15 9.51136 451.271 9.51136C453.43 9.51136 455.315 9.88068 456.925 10.6193C458.544 11.358 459.804 12.3854 460.703 13.7017C461.603 15.018 462.067 16.5426 462.095 18.2756H456.2Z" fill="white"/>
</svg>
